<svg xmlns="http://www.w3.org/2000/svg" xmlns:xlink="http://www.w3.org/1999/xlink" width="1071.991" height="1462.827" viewBox="0 0 1071.991 1462.827">
  <defs>
    <linearGradient id="linear-gradient" x1="0.5" y1="1.498" x2="0.473" y2="-0.41" gradientUnits="objectBoundingBox">
      <stop offset="0" stop-color="#4b278a"/>
      <stop offset="1" stop-color="#2c1f42"/>
    </linearGradient>
  </defs>
  <g id="Groupe_812" data-name="Groupe 812" transform="translate(404.29 -49.486)">
    <path id="Tracé_200" data-name="Tracé 200" d="M108.147,83.113,29.523,154.9a30.905,30.905,0,0,0-10.085,22.193C10.885,583.429-292.947,770.78-375.985,814.368a28.428,28.428,0,0,0-12.476,36.079,137.572,137.572,0,0,0,101.829,75.375,22.51,22.51,0,0,0,18.269-4.506A4617.371,4617.371,0,0,0,154.709,546.523a6.5,6.5,0,0,1,9.226-.153,6.413,6.413,0,0,1,1.9,3.617c5.947,35.588,9.226,69.643,10.911,94.472l36.631-26.331a657.051,657.051,0,0,0,45.366-171.411c29.181-222.724-36.507-320.077-77.062-361.489A52.842,52.842,0,0,0,108.147,83.113Z" transform="translate(401.708 586.091)" fill="url(#linear-gradient)"/>
    <path id="Tracé_201" data-name="Tracé 201" d="M290.38,99.305a4.918,4.918,0,0,0,1.072-6.9,5.063,5.063,0,0,0-2.33-1.747l-113.6-40.094a18.648,18.648,0,0,0-16.338,1.87c-45.03,28.6-277.256,179.963-445.3,363.114a7.9,7.9,0,0,1-11.127.766,8.108,8.108,0,0,1-2.513-4.261c-4.352-19.74-7.173-84.05-9.042-103.729l-32.83,17.656-43.589,214.478a13.168,13.168,0,0,0-.95,2.115c-1.164,3.924-4.413,15.2-7.847,32.247-19.8,98.672-45.489,390.794,285.96,570.266C-108.047,1145.09-432.109,621.845,290.38,99.305Z" transform="translate(0 0)" fill="url(#linear-gradient)"/>
    <path id="Tracé_202" data-name="Tracé 202" d="M-313.406,392.993a117.449,117.449,0,0,0,66.579,16.338,54.488,54.488,0,0,0,23.3-7.51c1.257-.92,3.219-1.9,4.814-2.973a41.8,41.8,0,0,0,4.413-3.341c.674-.552,1.318-1.165,1.9-1.747.583-.552.368-1.1.583-1.717.245-1.134.459-2.3.673-3.525a92.135,92.135,0,0,0-1.1-31.756,120.163,120.163,0,0,0-4.415-16.338c-3.188-5.3-6.223-10.606-8.644-15.756-5.212-10.269-9.533-19.894-12.935-27.434l6.192-18.392c2.636,3.464,5.518,2.544,6.958-.889a51.81,51.81,0,0,0,2.177-16.338l.275-10.483v.031l.674,5.119c.89,6.928,1.38,14.223,2.177,21.457a58.2,58.2,0,0,0,15.235,38.9,68.745,68.745,0,0,0,11.157-4.169,96.339,96.339,0,0,1,12.414,27.067,99.364,99.364,0,0,0,46.622-31.3,112.405,112.405,0,0,0,24.952-53.459,120.688,120.688,0,0,1-21.364,55.574,108.358,108.358,0,0,1-47.082,37.58c3.524,11.035,7.54,20.936,20.9,21.794,10.392,2.728,27.005-7.663,39.574-23.388a155.924,155.924,0,0,0,16.338-25.319c4.6-8.614,8.368-16.951,12.168-23.848a115.554,115.554,0,0,0,13.918-30.53,126.419,126.419,0,0,0,3.708-16.859l.582-4.322a42.094,42.094,0,0,0,.4-5.456l.184-5.456.337-1.747.153-.92v-.429l-.214-2.36V223.7c-.093-2.943-.4-5.885-.675-8.859a139.219,139.219,0,0,0-3.1-17.748,152.466,152.466,0,0,0-12.873-34.515A168.326,168.326,0,0,0-135.741,105.1a190.894,190.894,0,0,0-72.923-32.921,135.607,135.607,0,0,0-14.837-2.3c-3-.215-6.59-.368-9.84-.368h-3.34l-1.257-.215h-1.2l-3.1.307-3.741.215c-2.513.184-5.028.368-7.541.674-5.027.613-10.054,1.441-14.989,2.544A151.134,151.134,0,0,0-323.8,98.02,164.551,164.551,0,0,0-386.819,192.8a245.058,245.058,0,0,0-5.119,38.1c-.093,3.188-.276,6.345-.276,9.533V250.64l.336,6.192.245,3.372.154,1.717.491,4.506.245,2.33a181.4,181.4,0,0,0,24.522,71.82A150.433,150.433,0,0,0-313.406,392.993Z" transform="translate(358.072 587.491)" fill="url(#linear-gradient)"/>
  </g>
</svg>
