<svg version="1.2" xmlns="http://www.w3.org/2000/svg" xmlns:xlink="http://www.w3.org/1999/xlink" overflow="visible" preserveAspectRatio="none" viewBox="0 0 28.999980364734515 26.99999" width="28.999980364734515" height="26.99999"><g transform="translate(2, 2)"><g transform="translate(2.831068712794149e-15, 8.326672684688674e-16) rotate(0)"><path d="M24.88638,4.95757c-0.09499,-0.09443 -0.23747,-0.18886 -0.37994,-0.18886h-20.18457l-1.23482,-4.29656v0c-0.04749,-0.28329 -0.23747,-0.47215 -0.52242,-0.47215l-2.13719,0.14164c-0.23747,0 -0.42744,0.23607 -0.42744,0.51936c0,0.23607 0.23747,0.42493 0.47493,0.42493c0,0 0,0 0.04749,0l1.70975,-0.09443l3.89443,13.5507l0.18997,0.75544c0.04749,0.18886 0.23747,0.3305 0.47493,0.3305h15.34027c0.23747,0 0.42744,-0.14164 0.47493,-0.37772l2.37465,-9.86793c0.04749,-0.14164 0,-0.28329 -0.09499,-0.42493zM21.75184,14.68386h-14.62787l-0.04749,-0.14164v0l-2.51713,-8.8292h19.47217zM9.07118,18.37293c-1.28231,0 -2.32716,1.03873 -2.32716,2.31353c0,1.2748 1.04485,2.31353 2.32716,2.31353c1.28231,0 2.32716,-0.99151 2.32716,-2.31353c0,-1.2748 -1.04485,-2.31353 -2.32716,-2.31353zM19.51966,18.37293c-1.28231,0 -2.32716,1.03873 -2.32716,2.31353c0,1.2748 1.04485,2.31353 2.32716,2.31353c1.28231,0 2.32716,-1.03873 2.32716,-2.31353c-0.04749,-1.2748 -1.09234,-2.31353 -2.32716,-2.31353z" style="stroke: rgb(255, 255, 255); stroke-width: 2; stroke-linecap: butt; stroke-linejoin: miter; fill: rgb(255, 255, 255);" vector-effect="non-scaling-stroke"/></g><defs><path id="path-16058791051154863" d="M24.88638,4.95757c-0.09499,-0.09443 -0.23747,-0.18886 -0.37994,-0.18886h-20.18457l-1.23482,-4.29656v0c-0.04749,-0.28329 -0.23747,-0.47215 -0.52242,-0.47215l-2.13719,0.14164c-0.23747,0 -0.42744,0.23607 -0.42744,0.51936c0,0.23607 0.23747,0.42493 0.47493,0.42493c0,0 0,0 0.04749,0l1.70975,-0.09443l3.89443,13.5507l0.18997,0.75544c0.04749,0.18886 0.23747,0.3305 0.47493,0.3305h15.34027c0.23747,0 0.42744,-0.14164 0.47493,-0.37772l2.37465,-9.86793c0.04749,-0.14164 0,-0.28329 -0.09499,-0.42493zM21.75184,14.68386h-14.62787l-0.04749,-0.14164v0l-2.51713,-8.8292h19.47217zM9.07118,18.37293c-1.28231,0 -2.32716,1.03873 -2.32716,2.31353c0,1.2748 1.04485,2.31353 2.32716,2.31353c1.28231,0 2.32716,-0.99151 2.32716,-2.31353c0,-1.2748 -1.04485,-2.31353 -2.32716,-2.31353zM19.51966,18.37293c-1.28231,0 -2.32716,1.03873 -2.32716,2.31353c0,1.2748 1.04485,2.31353 2.32716,2.31353c1.28231,0 2.32716,-1.03873 2.32716,-2.31353c-0.04749,-1.2748 -1.09234,-2.31353 -2.32716,-2.31353z" vector-effect="non-scaling-stroke"/></defs></g></svg>