<svg id="logo" xmlns="http://www.w3.org/2000/svg" width="197.736" height="87.484" viewBox="0 0 197.736 87.484">
  <g id="Group_2" transform="translate(0)">
    <g id="Group_1" transform="translate(0)">
      <path id="Path_1" d="M200.317,259.907c1.741-13.283-2.176-19.087-4.594-21.556a3.152,3.152,0,0,0-4.379-.127l-4.689,4.281a1.847,1.847,0,0,0-.6,1.323c-.51,24.231-18.627,35.4-23.579,38a1.7,1.7,0,0,0-.743,2.152,8.2,8.2,0,0,0,6.073,4.5,1.341,1.341,0,0,0,1.088-.268,275.309,275.309,0,0,0,25.228-22.352.39.39,0,0,1,.664.208c.354,2.121.55,4.152.657,5.631l2.186-1.57A39.2,39.2,0,0,0,200.317,259.907Z" transform="translate(-136.826 -201.014)" fill="#fff"/>
      <path id="Path_2" d="M41.347,2.455,34.573.064a1.111,1.111,0,0,0-.972.11C30.914,1.88,17.066,10.908,7.045,21.828a.469.469,0,0,1-.806-.21c-.261-1.177-.429-5.012-.54-6.185l-1.96,1.053-2.6,12.789a.672.672,0,0,0-.057.127c-.071.235-.264.906-.467,1.922h0c-1.18,5.884-2.714,23.3,17.05,34,0,0-19.329-31.2,23.759-62.359A.294.294,0,0,0,41.347,2.455Z" transform="translate(0.001 0.001)" fill="#fff"/>
      <path id="Path_3" d="M159.251,251.492a5.949,5.949,0,0,1-2.78,1.867,5.732,5.732,0,0,0-.74-1.614,4.315,4.315,0,0,1-.665.248,3.477,3.477,0,0,1-.907-2.321c-.048-.431-.078-.866-.13-1.278l-.041-.305c0-.008,0-.012,0-.018a.011.011,0,0,0,0-.006c0,.008,0,.012,0,.014l-.017.625a3.064,3.064,0,0,1-.13.975c-.086.2-.259.259-.414.054l-.369,1.1c.2.451.461,1.025.771,1.637.144.307.329.622.515.939a7.09,7.09,0,0,1,.265.981,5.5,5.5,0,0,1,.066,1.894q-.018.108-.041.211c-.012.035-.008.067-.034.1s-.074.07-.113.1a2.455,2.455,0,0,1-.264.2c-.1.064-.212.124-.288.178a3.227,3.227,0,0,1-1.389.449,7,7,0,0,1-3.971-.973,8.971,8.971,0,0,1-3.15-3.124,10.8,10.8,0,0,1-1.465-4.282l-.017-.139-.028-.27-.009-.1-.015-.2-.02-.371-.008-.322,0-.283c0-.19.009-.379.017-.569a14.43,14.43,0,0,1,.305-2.268,9.818,9.818,0,0,1,3.758-5.651,9.034,9.034,0,0,1,3.3-1.49,8.9,8.9,0,0,1,.9-.152c.15-.02.3-.029.448-.04l.224-.012a1.634,1.634,0,1,0,.184-.018h0l0,0,.009,0,.018,0,.037.006.075.012a.331.331,0,0,0,.049.006h.15c.195,0,.408.009.587.023a8.131,8.131,0,0,1,.884.136,11.389,11.389,0,0,1,4.348,1.963,10.042,10.042,0,0,1,2.94,3.429,9.185,9.185,0,0,1,.768,2.058,8.5,8.5,0,0,1,.184,1.059c.017.176.035.353.04.527l.008.262v.06l.014.141,0,.026-.009.053-.02.106-.011.33c-.006.106-.011.238-.023.32l-.035.258a7.626,7.626,0,0,1-.221,1.005,6.968,6.968,0,0,1-.829,1.821c-.227.411-.452.907-.727,1.422a9.252,9.252,0,0,1-.978,1.508c-.748.938-1.74,1.557-2.359,1.395-.8-.051-1.036-.641-1.248-1.293a6.467,6.467,0,0,0,2.808-2.241,7.194,7.194,0,0,0,1.275-3.315A6.7,6.7,0,0,1,159.251,251.492Z" transform="translate(-121.802 -200.89)" fill="#fff"/>
    </g>
  </g>
  <g id="Group_3" transform="translate(83.736 19.18)">
    <path id="Path_4" d="M1.861-.111h.031A2.99,2.99,0,0,1,2.977-.937a3.334,3.334,0,0,1,1.39-.29,3.237,3.237,0,0,1,1.742.474A3.1,3.1,0,0,1,7.293.637a5.21,5.21,0,0,1,.42,2.185,5.521,5.521,0,0,1-.458,2.345,3.369,3.369,0,0,1-1.291,1.5,3.645,3.645,0,0,1-1.948.512,3.061,3.061,0,0,1-1.3-.275,2.872,2.872,0,0,1-1.024-.795H1.647L1.4,6.978H.486V-4.512H1.861ZM4.092-.02A2.343,2.343,0,0,0,2.923.286a3.665,3.665,0,0,0-1.062.978v3.7a2.143,2.143,0,0,0,.84.749,2.669,2.669,0,0,0,1.238.275A2.05,2.05,0,0,0,5.162,5.6,2.53,2.53,0,0,0,6,4.511a4.211,4.211,0,0,0,.306-1.673,3.228,3.228,0,0,0-.619-2.1A1.969,1.969,0,0,0,4.092-.02ZM16.316-1.028,13.2,7.482A5.065,5.065,0,0,1,11.984,9.5a2.562,2.562,0,0,1-1.811.672,4.322,4.322,0,0,1-1.314-.2L9.1,8.9a3.114,3.114,0,0,0,.451.107,2.876,2.876,0,0,0,.481.046,1.473,1.473,0,0,0,.955-.374,2.493,2.493,0,0,0,.71-1.047l.153-.413L8.477-1.028H9.929l2.6,6.845,2.353-6.845Zm9.076-.2a3.512,3.512,0,0,1,1.322.237,2.909,2.909,0,0,1,.986.634h.061l.336-.672h.871V6.718A3.411,3.411,0,0,1,27.982,9.4a3.884,3.884,0,0,1-2.682.879,5.455,5.455,0,0,1-1.719-.26,4.408,4.408,0,0,1-1.337-.688l.565-1.039a3.842,3.842,0,0,0,2.414.764,2.849,2.849,0,0,0,1.742-.489,1.779,1.779,0,0,0,.657-1.528V5.8a3.365,3.365,0,0,1-2.384.947,3.742,3.742,0,0,1-1.849-.458,3.245,3.245,0,0,1-1.3-1.345,4.414,4.414,0,0,1-.474-2.109A4.358,4.358,0,0,1,22.152.607a3.519,3.519,0,0,1,1.4-1.375A3.869,3.869,0,0,1,25.392-1.227ZM25.621.011A2.509,2.509,0,0,0,23.78.729a2.8,2.8,0,0,0-.726,2.078A2.827,2.827,0,0,0,23.711,4.8a2.223,2.223,0,0,0,1.711.711,2.7,2.7,0,0,0,1.184-.267,2.824,2.824,0,0,0,.986-.8V.882a2.5,2.5,0,0,0-.81-.626A2.569,2.569,0,0,0,25.621.011ZM38.165,6l-.107.917a1.452,1.452,0,0,1-.779.168,1.263,1.263,0,0,1-.848-.267,1.41,1.41,0,0,1-.42-.848,3.4,3.4,0,0,1-2.674,1.207,2.893,2.893,0,0,1-1.856-.588A2.029,2.029,0,0,1,30.74,4.9a2,2,0,0,1,.917-1.8,4.153,4.153,0,0,1,2.307-.6,9.227,9.227,0,0,1,1.031.061q.542.061.894.138V1.646A1.544,1.544,0,0,0,35.362.339a2.209,2.209,0,0,0-1.383-.4,3.564,3.564,0,0,0-2.2.779l-.6-.886a4.559,4.559,0,0,1,3.01-1.054,3.271,3.271,0,0,1,2.292.718,2.768,2.768,0,0,1,.779,2.139V5.374q0,.642.5.642Zm-4.553.076A2.809,2.809,0,0,0,35.9,4.885V3.693a7.54,7.54,0,0,0-.863-.138,8.87,8.87,0,0,0-.986-.061,2.848,2.848,0,0,0-1.421.321,1.091,1.091,0,0,0-.565,1.024,1.043,1.043,0,0,0,.458.932A1.91,1.91,0,0,0,33.612,6.077Zm14.836-7.3a2.468,2.468,0,0,1,1.872.711A2.835,2.835,0,0,1,51,1.523V6.978H49.61V1.63Q49.61,0,48.219,0a2,2,0,0,0-1.161.359,3.344,3.344,0,0,0-.947,1.092V6.978H44.705V1.585a1.606,1.606,0,0,0-.4-1.215A1.412,1.412,0,0,0,43.3,0a1.984,1.984,0,0,0-1.2.4,3.082,3.082,0,0,0-.894,1.054V6.978h-1.39V-1.028h1.07L41.069.118h.046A3.359,3.359,0,0,1,42.161-.906a2.7,2.7,0,0,1,1.368-.321,2.726,2.726,0,0,1,1.436.344A2.278,2.278,0,0,1,45.851.194,3.317,3.317,0,0,1,47.012-.891,3.048,3.048,0,0,1,48.449-1.227Zm6.28,8.205H53.353V-1.028h1.375ZM54.041-3.992a.984.984,0,0,1,.649.222.8.8,0,0,1,.267.649.818.818,0,0,1-.267.657.964.964,0,0,1-.649.229.935.935,0,0,1-.642-.229.83.83,0,0,1-.26-.657.806.806,0,0,1,.26-.649A.955.955,0,0,1,54.041-3.992Zm6.387,2.766a3.512,3.512,0,0,1,1.322.237,2.909,2.909,0,0,1,.986.634H62.8l.336-.672H64V6.718A3.411,3.411,0,0,1,63.018,9.4a3.884,3.884,0,0,1-2.682.879,5.456,5.456,0,0,1-1.719-.26,4.408,4.408,0,0,1-1.337-.688l.565-1.039a3.842,3.842,0,0,0,2.414.764A2.848,2.848,0,0,0,62,8.567a1.779,1.779,0,0,0,.657-1.528V5.8a3.365,3.365,0,0,1-2.384.947,3.742,3.742,0,0,1-1.849-.458,3.245,3.245,0,0,1-1.3-1.345,4.414,4.414,0,0,1-.474-2.109A4.358,4.358,0,0,1,57.189.607a3.519,3.519,0,0,1,1.4-1.375A3.869,3.869,0,0,1,60.428-1.227ZM60.657.011a2.509,2.509,0,0,0-1.841.718,2.8,2.8,0,0,0-.726,2.078A2.827,2.827,0,0,0,58.747,4.8a2.223,2.223,0,0,0,1.711.711,2.7,2.7,0,0,0,1.184-.267,2.824,2.824,0,0,0,.986-.8V.882a2.5,2.5,0,0,0-.81-.626A2.569,2.569,0,0,0,60.657.011ZM69.58-1.227a4.207,4.207,0,0,1,1.948.458A3.477,3.477,0,0,1,72.965.63a4.632,4.632,0,0,1,.542,2.345,4.632,4.632,0,0,1-.542,2.345,3.477,3.477,0,0,1-1.436,1.4,4.369,4.369,0,0,1-3.9,0A3.477,3.477,0,0,1,66.2,5.32a4.632,4.632,0,0,1-.542-2.345A4.632,4.632,0,0,1,66.2.63a3.477,3.477,0,0,1,1.436-1.4A4.207,4.207,0,0,1,69.58-1.227ZM69.58,0a2.285,2.285,0,0,0-1.834.787,3.272,3.272,0,0,0-.672,2.193,3.272,3.272,0,0,0,.672,2.193,2.53,2.53,0,0,0,3.675-.008,3.253,3.253,0,0,0,.68-2.185A3.253,3.253,0,0,0,71.421.79,2.3,2.3,0,0,0,69.58,0Z" transform="translate(1.323 38.007)" fill="#f5cb5c"/>
    <text id="GLYPH" transform="translate(0 22)" fill="#fff" font-size="29" font-family="Motiva-sans, sans-serif" font-weight="500"><tspan x="0" y="0">GLYPH</tspan></text>
  </g>
</svg>
