<svg xmlns="http://www.w3.org/2000/svg" width="25.04" height="21.393" viewBox="0 0 25.04 21.393">
  <path id="Tracé_167" data-name="Tracé 167" d="M219.946,168.687l-11.366-18.66a1.006,1.006,0,0,0-1.868,0l-11.366,18.66c-.489.8-.111,2.1.612,2.1h23.374C220.057,170.788,220.435,169.49,219.946,168.687Zm-12.3.391a1.74,1.74,0,1,1,1.739-1.741A1.74,1.74,0,0,1,207.647,169.077Zm.6-5.084c-.125.315-.268.6-.6.6h-.006c-.331,0-.513-.289-.6-.6,0,0-2.057-5.946-2.057-6.528a.6.6,0,0,1,.6-.6h4.123a.616.616,0,0,1,.6.6C210.307,157.773,208.25,163.993,208.25,163.993Z" transform="translate(-195.127 -149.395)" fill="#201630"/>
</svg>
